<svg xmlns="http://www.w3.org/2000/svg" width="1000" height="300" viewBox="0 0 1000 300">
  <defs><linearGradient id="fill" x1="0" y1="0" x2="0" y2="1">
    <stop offset="0" stop-color="#58a6ff" stop-opacity="0.35"/><stop offset="1" stop-color="#58a6ff" stop-opacity="0"/>
  </linearGradient></defs>
  <rect width="1000" height="300" rx="14" fill="#0d1117"/>
  <g font-family="ui-monospace, SFMono-Regular, Menlo, monospace" font-size="11" fill="#8b949e">
    <text x="500.0" y="30" text-anchor="middle" font-size="15" fill="#58a6ff">xoorki's contribution graph</text>
    <text x="980" y="30" text-anchor="end">46 in the last 31 days</text>
    <line x1="50" x2="980" y1="250.0" y2="250.0" stroke="#21262d"/><text x="40" y="254.0" text-anchor="end">0</text><line x1="50" x2="980" y1="200.0" y2="200.0" stroke="#21262d"/><text x="40" y="204.0" text-anchor="end">6</text><line x1="50" x2="980" y1="150.0" y2="150.0" stroke="#21262d"/><text x="40" y="154.0" text-anchor="end">12</text><line x1="50" x2="980" y1="100.0" y2="100.0" stroke="#21262d"/><text x="40" y="104.0" text-anchor="end">18</text><line x1="50" x2="980" y1="50.0" y2="50.0" stroke="#21262d"/><text x="40" y="54.0" text-anchor="end">24</text><text x="50.0" y="270" text-anchor="middle">27</text><text x="81.0" y="270" text-anchor="middle">28</text><text x="112.0" y="270" text-anchor="middle">29</text><text x="143.0" y="270" text-anchor="middle">30</text><text x="174.0" y="270" text-anchor="middle">31</text><text x="205.0" y="270" text-anchor="middle">1</text><text x="236.0" y="270" text-anchor="middle">2</text><text x="267.0" y="270" text-anchor="middle">3</text><text x="298.0" y="270" text-anchor="middle">4</text><text x="329.0" y="270" text-anchor="middle">5</text><text x="360.0" y="270" text-anchor="middle">6</text><text x="391.0" y="270" text-anchor="middle">7</text><text x="422.0" y="270" text-anchor="middle">8</text><text x="453.0" y="270" text-anchor="middle">9</text><text x="484.0" y="270" text-anchor="middle">10</text><text x="515.0" y="270" text-anchor="middle">11</text><text x="546.0" y="270" text-anchor="middle">12</text><text x="577.0" y="270" text-anchor="middle">13</text><text x="608.0" y="270" text-anchor="middle">14</text><text x="639.0" y="270" text-anchor="middle">15</text><text x="670.0" y="270" text-anchor="middle">16</text><text x="701.0" y="270" text-anchor="middle">17</text><text x="732.0" y="270" text-anchor="middle">18</text><text x="763.0" y="270" text-anchor="middle">19</text><text x="794.0" y="270" text-anchor="middle">20</text><text x="825.0" y="270" text-anchor="middle">21</text><text x="856.0" y="270" text-anchor="middle">22</text><text x="887.0" y="270" text-anchor="middle">23</text><text x="918.0" y="270" text-anchor="middle">24</text><text x="949.0" y="270" text-anchor="middle">25</text><text x="980.0" y="270" text-anchor="middle">26</text>
  </g>
  <polygon points="50,250 50.0,250.0 81.0,250.0 112.0,250.0 143.0,250.0 174.0,250.0 205.0,250.0 236.0,250.0 267.0,250.0 298.0,250.0 329.0,250.0 360.0,250.0 391.0,250.0 422.0,250.0 453.0,250.0 484.0,250.0 515.0,250.0 546.0,250.0 577.0,250.0 608.0,250.0 639.0,250.0 670.0,250.0 701.0,250.0 732.0,50.0 763.0,250.0 794.0,250.0 825.0,225.0 856.0,250.0 887.0,200.0 918.0,141.7 949.0,250.0 980.0,250.0 980,250" fill="url(#fill)"/>
  <polyline points="50.0,250.0 81.0,250.0 112.0,250.0 143.0,250.0 174.0,250.0 205.0,250.0 236.0,250.0 267.0,250.0 298.0,250.0 329.0,250.0 360.0,250.0 391.0,250.0 422.0,250.0 453.0,250.0 484.0,250.0 515.0,250.0 546.0,250.0 577.0,250.0 608.0,250.0 639.0,250.0 670.0,250.0 701.0,250.0 732.0,50.0 763.0,250.0 794.0,250.0 825.0,225.0 856.0,250.0 887.0,200.0 918.0,141.7 949.0,250.0 980.0,250.0" fill="none" stroke="#58a6ff" stroke-width="2.5" stroke-linejoin="round"/>
  <circle cx="50.0" cy="250.0" r="3.5" fill="#0d1117" stroke="#58a6ff" stroke-width="2"/><circle cx="81.0" cy="250.0" r="3.5" fill="#0d1117" stroke="#58a6ff" stroke-width="2"/><circle cx="112.0" cy="250.0" r="3.5" fill="#0d1117" stroke="#58a6ff" stroke-width="2"/><circle cx="143.0" cy="250.0" r="3.5" fill="#0d1117" stroke="#58a6ff" stroke-width="2"/><circle cx="174.0" cy="250.0" r="3.5" fill="#0d1117" stroke="#58a6ff" stroke-width="2"/><circle cx="205.0" cy="250.0" r="3.5" fill="#0d1117" stroke="#58a6ff" stroke-width="2"/><circle cx="236.0" cy="250.0" r="3.5" fill="#0d1117" stroke="#58a6ff" stroke-width="2"/><circle cx="267.0" cy="250.0" r="3.5" fill="#0d1117" stroke="#58a6ff" stroke-width="2"/><circle cx="298.0" cy="250.0" r="3.5" fill="#0d1117" stroke="#58a6ff" stroke-width="2"/><circle cx="329.0" cy="250.0" r="3.5" fill="#0d1117" stroke="#58a6ff" stroke-width="2"/><circle cx="360.0" cy="250.0" r="3.5" fill="#0d1117" stroke="#58a6ff" stroke-width="2"/><circle cx="391.0" cy="250.0" r="3.5" fill="#0d1117" stroke="#58a6ff" stroke-width="2"/><circle cx="422.0" cy="250.0" r="3.5" fill="#0d1117" stroke="#58a6ff" stroke-width="2"/><circle cx="453.0" cy="250.0" r="3.5" fill="#0d1117" stroke="#58a6ff" stroke-width="2"/><circle cx="484.0" cy="250.0" r="3.5" fill="#0d1117" stroke="#58a6ff" stroke-width="2"/><circle cx="515.0" cy="250.0" r="3.5" fill="#0d1117" stroke="#58a6ff" stroke-width="2"/><circle cx="546.0" cy="250.0" r="3.5" fill="#0d1117" stroke="#58a6ff" stroke-width="2"/><circle cx="577.0" cy="250.0" r="3.5" fill="#0d1117" stroke="#58a6ff" stroke-width="2"/><circle cx="608.0" cy="250.0" r="3.5" fill="#0d1117" stroke="#58a6ff" stroke-width="2"/><circle cx="639.0" cy="250.0" r="3.5" fill="#0d1117" stroke="#58a6ff" stroke-width="2"/><circle cx="670.0" cy="250.0" r="3.5" fill="#0d1117" stroke="#58a6ff" stroke-width="2"/><circle cx="701.0" cy="250.0" r="3.5" fill="#0d1117" stroke="#58a6ff" stroke-width="2"/><circle cx="732.0" cy="50.0" r="3.5" fill="#0d1117" stroke="#58a6ff" stroke-width="2"/><circle cx="763.0" cy="250.0" r="3.5" fill="#0d1117" stroke="#58a6ff" stroke-width="2"/><circle cx="794.0" cy="250.0" r="3.5" fill="#0d1117" stroke="#58a6ff" stroke-width="2"/><circle cx="825.0" cy="225.0" r="3.5" fill="#0d1117" stroke="#58a6ff" stroke-width="2"/><circle cx="856.0" cy="250.0" r="3.5" fill="#0d1117" stroke="#58a6ff" stroke-width="2"/><circle cx="887.0" cy="200.0" r="3.5" fill="#0d1117" stroke="#58a6ff" stroke-width="2"/><circle cx="918.0" cy="141.7" r="3.5" fill="#0d1117" stroke="#58a6ff" stroke-width="2"/><circle cx="949.0" cy="250.0" r="3.5" fill="#0d1117" stroke="#58a6ff" stroke-width="2"/><circle cx="980.0" cy="250.0" r="3.5" fill="#0d1117" stroke="#58a6ff" stroke-width="2"/>
</svg>
